<svg viewBox="0 0 400 300" fill="none" xmlns="http://www.w3.org/2000/svg"><mask id="a" style="mask-type:alpha" maskUnits="userSpaceOnUse" x="32" y="32" width="336" height="236"><path d="M367.1 32H32v236h335.1V32Z" fill="#fff"/></mask><g mask="url(#a)"><path fill-rule="evenodd" clip-rule="evenodd" d="m180.3 70.1-4 .1-.5 2.4c-.8.2-1.6.5-2.4 1l-1.9-1.4-2.8 2.9 1.3 2c-.5.8-.8 1.6-1 2.5l-2.4.6.1 4.1 2.4.5c.2.8.5 1.6 1 2.4l-1.3 2.1 2.9 2.8 2-1.3c.8.5 1.6.8 2.5 1l.6 2.4 4-.1.5-2.4c.8-.2 1.6-.5 2.4-1l2.1 1.3 2.8-2.9-1.3-2c.5-.8.8-1.6 1-2.5l2.4-.6-.1-4-2.4-.5c-.3-.8-.6-1.6-1.1-2.4l1.2-2.1-2.9-2.8-2 1.3c-.8-.5-1.6-.8-2.5-1l-.6-2.4Zm-4.596 14.997c1.7 1.7 4.5 1.6 6.1-.1 1.7-1.7 1.6-4.5-.1-6.1-1.7-1.7-4.5-1.7-6.1.1-1.7 1.7-1.6 4.5.1 6.1ZM163.7 124.6l-2.8 2.9 1.3 2c-.5.8-.8 1.6-1 2.5l-2.4.6.1 4 2.4.5c.2.8.5 1.6 1 2.4l-1.3 2.1 2.9 2.8 2.1-1.4c.8.5 1.6.8 2.5 1l.6 2.4 4-.1.5-2.4c.8-.3 1.6-.6 2.4-1.1l2.1 1.3 2.8-2.9-1.3-2c.5-.8.8-1.6 1-2.5l2.4-.6-.1-4-2.4-.5c-.2-.8-.5-1.6-1-2.4l1.3-2.1-2.9-2.8-2 1.3c-.8-.5-1.6-.8-2.5-1l-.6-2.4-4 .1-.5 2.4c-.8.2-1.6.5-2.4 1l-2.2-1.1Zm4.504 12.602c1.7 1.6 4.5 1.6 6.1-.1 1.7-1.7 1.6-4.5-.1-6.1-1.7-1.6-4.4-1.6-6.1.1-1.7 1.7-1.6 4.5.1 6.1ZM281.8 256.5l2.4.5c.2.8.5 1.6 1 2.4l-1.3 2.1 2.9 2.8 2-1.3c.8.5 1.6.8 2.5 1l.6 2.4 4-.1.5-2.5c.8-.2 1.6-.5 2.4-1l2.1 1.3 2.8-2.9-1.3-2c.5-.8.8-1.6 1-2.5l2.4-.6-.1-4-2.4-.5c-.3-.8-.6-1.6-1.1-2.4l1.3-2.1-2.9-2.8-2 1.3c-.8-.5-1.6-.8-2.5-1l-.6-2.4-4 .1-.5 2.4c-.8.3-1.6.6-2.4 1.1l-2-1.3-2.8 2.9 1.3 2c-.5.8-.8 1.6-1 2.5l-2.4.6.1 4Zm9.104.804c1.7 1.7 4.5 1.6 6.1-.1 1.7-1.7 1.6-4.5-.1-6.1-1.7-1.7-4.5-1.6-6.1.1-1.7 1.7-1.6 4.5.1 6.1ZM65.7 58.9l3.7-.9-.1-6.3-3.7-.8c-.3-1.4-.9-2.6-1.6-3.8l2-3.3-4.5-4.4-3.2 2.1c-1.2-.7-2.5-1.2-3.8-1.5l-.9-3.6-6.3.1-.8 3.7c-1.4.3-2.6.9-3.8 1.6l-3.2-2-4.4 4.5 2.1 3.2c-.7 1.2-1.2 2.5-1.5 3.9l-3.7.9.2 6.1 3.7.8c.3 1.4.9 2.6 1.6 3.8l-2 3.3 4.5 4.4 3.3-2.1c1.2.7 2.5 1.2 3.8 1.5l.9 3.7 6.2-.2.7-3.7c1.4-.3 2.6-.9 3.8-1.6l3.3 2 4.3-4.4-2.1-3.2c.7-1.2 1.2-2.5 1.5-3.8Zm-19.4.8c2.7 2.6 7 2.5 9.5-.2 2.6-2.7 2.5-7-.2-9.5-2.6-2.6-6.9-2.5-9.5.2-2.6 2.7-2.5 7 .2 9.5Z" fill="#F5F5F5"/><path fill-rule="evenodd" clip-rule="evenodd" d="M333 239v22.8c0 1.1.9 2 2 2h26.3c1.1 0 2-.9 2-2V239c0-1.3-1-2.3-2.3-2.3h-25.7c-1.2 0-2.3 1-2.3 2.3Z" fill="#fff"/><path fill-rule="evenodd" clip-rule="evenodd" d="M333 239v3.9h30.3V239c0-1.3-1-2.3-2.3-2.3h-25.7c-1.2 0-2.3 1-2.3 2.3Z" fill="#EBEBEB"/><path fill-rule="evenodd" clip-rule="evenodd" d="M336.9 239c-.6 0-1.1.5-1.1 1.1 0 .6.5 1.1 1.1 1.1.6 0 1.1-.5 1.1-1.1 0-.6-.5-1.1-1.1-1.1ZM340.3 239c-.6 0-1.1.5-1.1 1.1 0 .6.5 1.1 1.1 1.1.6 0 1.1-.5 1.1-1.1 0-.6-.5-1.1-1.1-1.1ZM343.7 239c-.6 0-1.1.5-1.1 1.1 0 .6.5 1.1 1.1 1.1.6 0 1.1-.5 1.1-1.1 0-.6-.5-1.1-1.1-1.1Z" fill="#fff"/><path fill-rule="evenodd" clip-rule="evenodd" d="M338.6 248.299v10.1c0 1.3 1.1 2.4 2.4 2.4h14.4c1.3 0 2.4-1.1 2.4-2.4v-10.1c0-1.3-1.1-2.4-2.4-2.4H341c-1.3 0-2.4 1-2.4 2.4Z" fill="#EBEBEB"/><path fill-rule="evenodd" clip-rule="evenodd" d="M347.1 250.2c-.1-.1-.3-.1-.4-.1-.4 0-.7.3-.7.7v4.4c0 .2 0 .3.1.4.2.4.7.5 1 .3l2-1.1 2-1.1.3-.3c.2-.4 0-.8-.3-1l-2-1.1-2-1.1Z" fill="#fff"/><path fill-rule="evenodd" clip-rule="evenodd" d="M332.795 262v-23.2c0-.2 0-.5.1-.7.1-.2.2-.5.3-.7.3-.4.8-.7 1.3-.8h27.2c.6.1 1.1.5 1.4 1.1.04.06.06.13.08.19.03.14.06.27.12.41-.03-.07-.02-.035-.007 0l.007.02v23.88c0 .5-.2.9-.5 1.2-.2.2-.4.3-.7.4h-.3l-.19-.1h-27.51c-.2 0-.4 0-.6-.1-.4-.2-.6-.6-.7-1 0-.067-.011-.134-.022-.2-.022-.134-.044-.267.022-.4Zm30.5-23.7c0-.075.02-.048.03-.015.01.032.01.07-.03.015Zm0 .02c.01.024.016.036 0-.02v.02Z" fill="#E0E0E0"/><path fill-rule="evenodd" clip-rule="evenodd" d="M189.405 36.6c-.1-1.6 1.3-3 2.9-3h31.2c1.7 0 3 1.3 3 3v27.6c0 1.4-1.1 2.5-2.5 2.5h-32.1c-1.4 0-2.5-1.1-2.5-2.5V36.6Z" fill="#fff"/><path fill-rule="evenodd" clip-rule="evenodd" d="M189.3 41.2v-4.6c0-1.6 1.4-3 3-3h31.2c1.7 0 3 1.3 3 3v4.6h-37.2Z" fill="#EBEBEB"/><path fill-rule="evenodd" clip-rule="evenodd" d="M194.1 36.4c-.8 0-1.4.6-1.4 1.3 0 .8.6 1.4 1.3 1.4.8 0 1.4-.6 1.4-1.3 0-.7-.6-1.4-1.3-1.4ZM198.3 36.4c-.8 0-1.4.6-1.4 1.3 0 .8.6 1.4 1.3 1.4.8 0 1.4-.6 1.4-1.3 0-.7-.6-1.4-1.3-1.4ZM202.4 36.4c-.8 0-1.4.6-1.4 1.3 0 .8.6 1.4 1.3 1.4.8 0 1.4-.6 1.4-1.3 0-.7-.6-1.4-1.3-1.4Z" fill="#fff"/><path fill-rule="evenodd" clip-rule="evenodd" d="M225 66.8h-.1c.9-.2 1.6-1 1.5-1.9V35.6c-.1-1-.9-1.7-1.8-1.9-.064 0-.137-.01-.214-.02-.166-.024-.35-.049-.486.02h-32.7c-.49.08-.91.3-1.21.59.36-.38.8-.6 1.31-.69h33.4c.2 0 .5.1.7.3.7.4 1.1 1 1.2 1.8v29.1c0 1-.7 1.8-1.6 2Zm-35.24-.95c-.11-.13-.2-.28-.27-.45.08.16.17.31.27.45Zm34.77.93-.23-.08H191c-.2 0-.5-.1-.7-.3-.21-.16-.39-.34-.54-.55.12.15.27.27.44.35l.6.3c.063 0 .136.01.213.02.167.023.35.048.487-.02h32.6c.23.17.36.24.43.28Zm0 0 .07.02s-.02 0-.07-.02Z" fill="#E0E0E0"/><path fill-rule="evenodd" clip-rule="evenodd" d="M199.903 48.3v12c0 1.2 1 2.2 2.2 2.2h12.1c1.2 0 2.2-1 2.2-2.2V48.2c0-1.2-1-2.2-2.2-2.2h-12.1c-1.3 0-2.3 1-2.2 2.3Z" fill="#F5F5F5"/><path fill-rule="evenodd" clip-rule="evenodd" d="M199.8 57.9V61c0 .9.7 1.6 1.6 1.6h13.3c.9 0 1.6-.7 1.6-1.6v-5l-3.8-3.6c-.4-.4-1.1-.4-1.5.1l-3 3.5-3-1.4c-.5-.3-1.2-.2-1.6.2l-3.6 3.1ZM207.3 48.9c-.8 0-1.5.7-1.5 1.5s.7 1.5 1.5 1.5 1.5-.7 1.5-1.5-.7-1.5-1.5-1.5Z" fill="#EBEBEB"/><path d="M363.8 200.1c1.7 0 3.1-1.6 3.1-3.5v-39.7c0-1.9-1.4-3.5-3.1-3.5h-48.9c-1.7 0-3.1 1.6-3.1 3.5v39.7c0 2 1.4 3.5 3.1 3.5h48.9Z" stroke="#E0E0E0" stroke-width=".5"/><path fill-rule="evenodd" clip-rule="evenodd" d="M366.6 156.2c0-1.6-1.3-2.8-2.8-2.8H315c-1.8 0-3.3 1.5-3.3 3.3v4.9h54.9v-5.4Z" fill="#E0E0E0"/><path fill-rule="evenodd" clip-rule="evenodd" d="M363.3 158.197c.5 0 .9-.4.9-.9s-.4-.9-.9-.9c-.5-.1-.9.4-.9.9s.4.9.9.9ZM360.6 156.4c-.5 0-.9.4-.9.9s.4.9.9.9.9-.4.9-.9-.4-.9-.9-.9ZM357.7 158.204c.5 0 .9-.4.9-.9s-.4-.9-.9-.9c-.4-.1-.9.3-.9.9 0 .5.4.9.9.9Z" fill="#fff"/><path fill-rule="evenodd" clip-rule="evenodd" d="m324.7 174.4 1 20.1s0 5.4-.1 5.7l25.1-.1.4-8 2.3-16.5-8.9-3.8-1.1-1.2-8.4-.1-1.4 1-8.9 2.9Z" fill="#EBEBEB"/><path fill-rule="evenodd" clip-rule="evenodd" d="M321.401 178c-1.2 3.4-4.1 15.9-4.3 16.8-.2.9.6 3.6 3.8 4.8 1.7.7 3.6 1 5.5.8v-6.3l-1.3-1.4.5-2.2-.9-16.2s-2.1.3-3.3 3.7Z" fill="#EBEBEB"/><path fill-rule="evenodd" clip-rule="evenodd" d="M322.5 192.205c.3-.1.6-.1.9 0 1 .2 1.9.7 2.6 1.5.2.3.3.5.4.8-.2-.3-.3-.61-.5-.81a5.1 5.1 0 0 0-2.6-1.4c-.263-.088-.527-.09-.8-.09Zm3.9 2.3c0 .1.1.19.1.3v-.1c0-.1 0-.1-.1-.2Zm-7-1.5c.2-.1.5-.2.9-.31.4-.19.9-.3 1.3-.4.3 0 .5-.1.8-.1.03 0 .06 0 .08.01-.29 0-.49.1-.78.1-.5.1-.9.2-1.3.4-.3.1-.6.2-.9.4a.35.35 0 0 0-.25-.04c.04-.01.09-.03.15-.06Zm-.227.082c.023-.007.048-.015.077-.022-.033.013-.058.018-.077.022Zm0 0-.023.008c.007-.003.014-.006.023-.008ZM321.6 191.695c.26-.05.54-.07.83-.07-.27 0-.54.03-.83.07Zm-.26.07c.08-.04.15-.07.26-.07-.09.03-.18.05-.26.07Zm0 0c-.07.04-.15.09-.24.13h-.2s.18-.05.44-.13Zm1.96-.07c-.29-.04-.59-.07-.87-.07.28 0 .56.02.87.07Zm1.5.7c-.5-.3-1-.6-1.5-.7.6.1 1.1.3 1.5.7Zm.4.4a7.33 7.33 0 0 1-.4-.4l.4.4Zm0 0s.1.01.1.1c0 0-.04-.03-.1-.1Z" fill="#D1D1D1"/><path fill-rule="evenodd" clip-rule="evenodd" d="m325.1 194.1 3.4 7.2h5.8l.1-.5-3.4-7c-.1-.2-.5-.4-.8-.4l-5 .1-.1.6Z" fill="#D1D1D1"/><path fill-rule="evenodd" clip-rule="evenodd" d="M329.497 196.4c-.4.1-3 .3-3 .3l-1-1.9-.2-.4c-.192.048-.458.084-.75.124-.93.127-2.126.291-2.05.976.1.8.4 1.3 1.1 1.2.38-.09.67-.19.96-.28-.08.05-.13.27.04.78.4.9.9 1.8 1.5 2.6.3.4.4.4.6.4.2 0 .8.6 1.1.6h.1c.6.5 1.3.5 1.9.2 1.1-.5 2-.8 2.1-.9.1-.1 1.3-1.2 1.5-1.5.3-.6.6-1.2.8-1.8-.1 0-.1-.1-.1-.1-.3-.4-.8-.4-1.1-.1 0 0-.2-.3-.8.1-.7.3-1.5.6-2.2.8.1-.1.2-.3.2-.5l-.028-.056c-.107-.223-.306-.636-.672-.544Z" fill="#E0E0E0"/><path fill-rule="evenodd" clip-rule="evenodd" d="M329.4 197.9c-1 .5-2 .7-3.1.6.56 0 1.03-.01 1.5-.1.5-.1 1-.3 1.5-.5l.6-.3s0 .1-.1.1-.3.1-.4.2Zm-3.1.6c-.2-.1-.3-.1-.5-.1h-.2s.3.1.6.1h.1ZM326.8 196.799h-.6c-.3-.1-.6-.2-.6-.1.4.2.8.2 1.2.1ZM325.2 196.3c.5-.2.9-.2.9-.2-.3 0-.6 0-.9.1-.3.1-.6.2-.9.4 0 0 .4-.1.9-.3ZM324.7 195.5v.4c0 .1-.1.1-.1.1h.1l.1-.1c.1-.1.1-.3.1-.5-.2-.1-.2-.3-.3-.5 0 0 .1.3.1.6ZM330.8 198.7c1.1-.6 2-1.1 2.6-1.5 0-.2-.1-.4-.3-.5-.1 0-.1-.1-.2-.1h.1c.1 0 .2.1.2.1.1.2.3.4.3.6-.6.4-1.6 1-2.6 1.6-.2.1-.5.3-.7.4-.2.1-.5.2-.7.3-.4.1-.8.2-1.2.2-.4.1-.7.1-.9.1h-.3l.3-.1c.2 0 .4-.1.8-.1l1.2-.3c.3-.1.5-.2.7-.3.2-.1.5-.3.7-.4ZM333.1 198.3l-.5.5c-.2.2-.5.4-.7.6-.3.2-.7.4-1 .6-.7.3-1.4.5-2.1.6l-.7.1-.1.1h.2c.2 0 .4-.1.7-.1.7-.1 1.4-.4 2.1-.6.4-.2.7-.4 1.1-.6.3-.2.5-.4.7-.7.2-.2.3-.4.4-.5.1-.1.1-.1.1-.2-.1 0-.1.1-.2.2Z" fill="#D1D1D1"/><path fill-rule="evenodd" clip-rule="evenodd" d="M361 200c.1-1.2-2-11.2-3.7-17.3-1.9-6.7-3.8-7.2-3.8-7.2l-2.6 15.3 1.5 9.4 8.6-.2Z" fill="#EBEBEB"/><path fill-rule="evenodd" clip-rule="evenodd" d="M329.703 152.902c-.9.3-1.4 1.3-1.1 2.2.3.8 1 1.2 1.8 1.1l8.4-5.4c.5-.4.7-1.2.3-1.9-.4-.6-1.1-1-1.8-.9-.9-.6-2.1-.6-2.9.1-1-.6-2.3-.2-2.9.8-.2.3-.3.7-.3 1-1-.1-1.9.5-2 1.5-.1.6.1 1.1.5 1.5Z" fill="#D1D1D1"/><path fill-rule="evenodd" clip-rule="evenodd" d="M333.904 173.1c0 .9.4 1.6 1 2.2.8.7 2 1 3.1.8 2.8-.5 4.3-2.2 5.2-4.4l.4-14.2c.3-4-1.8-7.5-5.9-7.7h-.4c-3.8.1-6.9 3-7.1 6.8-.2 3.5-.4 7.3-.3 9.3.1 3.9 4 4.4 4 4.4v2.8Z" fill="#E0E0E0"/><path fill-rule="evenodd" clip-rule="evenodd" d="M333.9 171.2c3.9.3 5-2.5 5-2.5-1.5 1-3.3 1.6-5.1 1.6l.1.9Z" fill="#EBEBEB"/><path fill-rule="evenodd" clip-rule="evenodd" d="M331.9 161c.3 0 .5-.2.6-.5 0-.3-.2-.5-.5-.6-.4 0-.6.2-.6.5s.2.5.5.6ZM332.201 158.2c.6 0 1 .3 1.1.2.1-.1 0-.2-.2-.3-.3-.2-.6-.3-.9-.3-.3 0-.6.1-.9.3-.2.2-.3.3-.2.4.1.1.5-.2 1.1-.3ZM336.9 161.2c.3 0 .5-.2.6-.5 0-.3-.2-.5-.5-.6-.3 0-.6.2-.6.5s.2.5.5.6ZM338 158.2c.6-.1 1 .3 1.1.2.1-.1 0-.2-.2-.3-.3-.2-.6-.3-.9-.3-.3 0-.6.1-.9.3-.1.2-.2.3-.2.4.1.1.5-.2 1.1-.3ZM333.4 162.6c0 .1.1.2.3.2h.3c.2.2.5.2.9.1-.3-.1-.6-.1-1-.2-.2 0-.3 0-.3-.1 0-.2 0-.3.1-.5.1-.4.3-.8.4-1.2.6-1.7 1-3 1-3.1-.1 0-.6 1.3-1.2 3l-.4 1.2c-.1.2-.1.4-.1.6ZM338.304 156.795c.6.1 1.1.41 1.2.3 0-.09 0-.2-.2-.4s-.5-.4-.9-.5c-.3-.1-.6-.1-1 0-.2.1-.4.21-.3.31 0 .2.6.09 1.2.29ZM332.199 156.696c.5 0 1 0 1.1-.1 0-.1 0-.2-.3-.3-.6-.3-1.3-.2-1.8.2-.1.1-.2.2-.1.3.1.1.6-.1 1.1-.1Z" fill="#D1D1D1"/><path fill-rule="evenodd" clip-rule="evenodd" d="M344.402 159.295c.2-2 .2-4.4-.3-5.8-.4-1.2-1.1-2-2.3-2.9-1.9-1.4-4.6-1.4-6.3-1.2-1.7.2-5.2 2.3-5 5.4 0 0 1-2.5 2.1-3 1.4-.7 2.1.8 3.4.4 1.4-.4 2.7-1.1 4.1-.1 1.5 1.1.8 1.9 1 3.7.5 7 1.8 9 2.1 5.7 0-.4 1-.7 1.2-2.2Z" fill="#D1D1D1"/><path fill-rule="evenodd" clip-rule="evenodd" d="M342.9 164.297c0 .1 2.7.7 2.7-2 0-1.5-.8-1.9-1.5-2-.6-.1-1.1.4-1.1 1 0 1.1-.1 2.9-.1 3Z" fill="#E0E0E0"/><path fill-rule="evenodd" clip-rule="evenodd" d="M343.801 161.4s-.1 0 0-.2c0-.1.1-.1.1-.2.1-.1.2-.1.3-.1.2 0 .4.2.5.4.1.2.2.5.2.7 0 .48-.28.96-.66 1.09.2-.22.33-.5.26-.79 0-.2 0-.5-.1-.7 0-.2-.2-.3-.3-.4-.1 0-.2 0-.3.1v.1Zm-.2 1.81c.01 0 .04.03.1.09h.3c.08-.06.17-.13.24-.21-.01 0-.03.01-.04.01-.1 0-.3 0-.4-.1-.09.13-.15.18-.2.21Zm0 0c-.05.02-.06-.01 0-.01v.01ZM335.1 153.501c.2 0 .4-.1.6-.1.4 0 .7.2.9.4.2.3.5.5.7.8.3.2.7.2 1-.1.2.8 1 1.3 1.8 1.2.2 0 .5-.1.6.1.1.2.1.4.1.5.1.4.5.7 1 .6.4-.1.8-.2 1.1-.5.3.3.8.4 1.2.2.4-.3.6-.8.4-1.3.5.1 1.1-.4 1-1-.2-.7-.5-1.2-1-1.5.4-.8.1-1.9-.7-2.3-.4-.2-.8-.3-1.3-.1-.5-1.2-1.9-1.8-3.1-1.2-.3.1-.5.3-.7.5-.7-1.1-2.1-1.5-3.2-.8-.5.3-.9.8-1.1 1.4-.8-.3-1.6 0-2 .7-.1.1-.1.3-.1.5.1.3.5.4.8.3.3-.1.6-.1 1 0 .3.2.3.6.4.9 0 .3.2.8.6.8Z" fill="#D1D1D1"/><path fill-rule="evenodd" clip-rule="evenodd" d="M336.3 165.7c-.4.2-.8.2-1.1 0-.5-.3-.6-.8-.7-1.3.7-.3 1.4-.6 2.1-.7.2.4.3.8.3 1.1-.1.4-.3.7-.6.9Z" fill="#EBEBEB"/><path fill-rule="evenodd" clip-rule="evenodd" d="M336.3 165.6c-.2.1-.5.2-.7.2h.2c.2.1.4 0 .6-.1.2-.2.4-.4.5-.7.1-.3.1-.7 0-1 0-.1-.1-.2-.1-.3 0-.1-.1-.1-.2-.1h-.1l-.5.2-.8.3c-.2.1-.5.2-.7.3.2-.1.5-.1.7-.2l.8-.2.4-.1h.1c0 .1.1.1.1.2.1.3.2.6.1.9 0 .2-.2.5-.4.6Z" fill="#D1D1D1"/><path fill-rule="evenodd" clip-rule="evenodd" d="m254.198 101.2-.1-4c-1.9-.1-3.5-1.6-3.6-3.5-.1-2 1.5-3.7 3.5-3.8l-.1-4c-4.2.1-7.6 3.6-7.5 7.8.1 4.2 3.5 7.6 7.8 7.5Z" fill="#455A64"/><path fill-rule="evenodd" clip-rule="evenodd" d="M43.5 83.4C37.7 83.4 33 88.2 33 94v16.3h249.3V92.5c0-5-4-9.1-9-9.1H43.5Z" fill="#E0E0E0"/><path fill-rule="evenodd" clip-rule="evenodd" d="M271.8 93.4c-1.66 0-3 1.34-3 3s1.34 3 3 3 3-1.34 3-3-1.34-3-3-3Z" fill="#03D5B7"/><path fill-rule="evenodd" clip-rule="evenodd" d="M262.7 93.4c-1.66 0-3 1.34-3 3s1.34 3 3 3 3-1.34 3-3-1.34-3-3-3Z" fill="#FFC412"/><path fill-rule="evenodd" clip-rule="evenodd" d="M253.5 93.4c1.6 0 3 1.3 3 3 0 1.6-1.3 3-3 3-1.6 0-3-1.3-3-3s1.4-3 3-3Z" fill="#fff"/><path fill-rule="evenodd" clip-rule="evenodd" d="m206.997 177.898 4.9-12.2c.2-.5-.1-1.1-.6-1.3-.5-.2-1.1.1-1.3.6l-5.1 12.2c-.2.5.1 1.1.6 1.3.1.1.3.1.4.1.4 0 .8-.2 1.1-.7ZM189.2 171c3.9-1.7 5.8-6.2 4.1-10.1-.8-1.9-2.3-3.3-4.2-4.1-1.9-.8-4-.8-5.9 0-1.9.8-3.3 2.3-4.1 4.2-.8 1.9-.8 4 0 5.9.8 1.9 2.3 3.3 4.2 4.1 1 .4 1.9.6 2.9.6s2.1-.2 3-.6Zm-5.203-12.3c-1.4.6-2.5 1.7-3 3.1-.5 1.4-.6 2.9 0 4.3s1.7 2.5 3.1 3c1.4.6 2.9.6 4.3 0 2.9-1.2 4.2-4.6 3-7.4-.6-1.4-1.7-2.5-3.1-3-.6-.3-1.4-.5-2.1-.5-.8 0-1.5.2-2.2.5ZM184.095 191.896c.5-.3.5-1 .2-1.4l-21.3-27.9c-.3-.5-1-.5-1.4-.2-.5.3-.5 1-.2 1.4l21.3 27.9c.2.3.5.4.8.4.2 0 .4-.1.6-.2Z" fill="#FFC412"/><path fill-rule="evenodd" clip-rule="evenodd" d="M33.799 246.998c.5-.3 47.6-27 68.3-19.3 18.3 6.8 25.8 10.8 24.9 13.4-.8.9-7.2-1-13.4-3.9-.5-.2-1.1 0-1.3.5-.2.5 0 1.1.5 1.3 1.9.9 11.7 5.4 14.9 4 .8-.4 1.1-.9 1.2-1.3 1.2-3.7-2.5-7.1-26.1-15.9-21.6-8.1-68 18.3-70 19.4-.5.3-.7.9-.4 1.4.2.3.6.5.9.5.2 0 .4-.1.5-.1Z" fill="#142D6E"/><path fill-rule="evenodd" clip-rule="evenodd" d="M106.395 234.596c4 3.2 14.4 12.6 14.6 17.6 0 .7-.2 1.3-.6 1.7-.6.3-2.8-.1-5.9-5.2-.3-.4-.9-.6-1.4-.3-.4.3-.6.9-.3 1.4 2.2 3.6 4.4 5.7 6.5 6.1.2.1.5.1.7.1.9 0 1.5-.4 1.6-.5 0-.1.1-.1.1-.1.9-.8 1.3-2 1.3-3.3-.3-6.8-13.9-17.9-15.4-19.1-.4-.3-1.1-.2-1.4.2-.3.4-.2 1.1.2 1.4Z" fill="#142D6E"/><path fill-rule="evenodd" clip-rule="evenodd" d="M112.301 258.401c-.7.4-1.6.2-2.4-.5-.4-.4-1-.3-1.4.1-.4.4-.3 1 .1 1.4.9.8 1.9 1.2 2.9 1.2.7 0 1.3-.2 1.9-.5 1-.6 3.3-2.8 1.5-9.4-2.2-8.3-13.4-15.1-13.9-15.4-.5-.3-1.1-.2-1.4.3-.3.5-.2 1.1.3 1.4.1.1 11 6.7 13 14.2 1.2 4.3.4 6.6-.6 7.2Z" fill="#142D6E"/><path fill-rule="evenodd" clip-rule="evenodd" d="M106.699 262.899c1.8-.6 2.7-2.9 2.9-7.1.4-9.5-12.8-17-13.4-17.3-.5-.3-1.1-.1-1.4.4-.3.5-.1 1.1.4 1.4.1 0 12.7 7.2 12.3 15.4-.2 4.5-1.3 5.2-1.6 5.3-.6.2-1.7-.5-2.4-1.3-.4-.4-1-.5-1.4-.1-.4.4-.5 1-.1 1.4.4.5 1.9 2 3.6 2 .3 0 .6 0 1.1-.1Z" fill="#142D6E"/><path fill-rule="evenodd" clip-rule="evenodd" d="M100.703 261.601c-.2.2-.5.4-1.3.2s-1.6-2.1-2.2-3.7c-.8-1.8-1.5-3.8-2.8-4.7-2.3-1.7-5.3-2.8-11.5.6-5.4 2.9-21.4 9.9-21.6 10-.5.2-.7.8-.5 1.3.1.4.5.6.9.6.1 0 .3 0 .5-.1.6-.3 16.2-7.1 21.7-10.1s7.6-2 9.4-.7c.9.6 1.5 2.3 2.1 3.8.9 2.3 1.8 4.5 3.6 4.9 1.6.3 2.6-.2 3.1-.7 1.4-1.2 1.8-3.8 1.2-7.8-.9-6.3-11.5-13.4-12-13.7-.5-.3-1.1-.2-1.4.3-.3.5-.2 1.1.3 1.4 2.9 1.9 10.5 7.8 11.1 12.3.6 4.5-.2 5.8-.6 6.1ZM33.005 161.4c.1 0 .2 0 .4-.1l2.4-.9c8.4-2.8 20.7-4.5 37.3-5.1.6 0 1-.4 1-1s-.4-1-1-1c-17.1.6-29.1 2.3-37.9 5.3-.9.3-1.7.6-2.5.9-.6.2-.8.8-.6 1.3.1.4.49.6.9.6ZM45.5 239.9l.9-44.8c0-.5-.4-1-1-1-.5 0-1 .4-1 1l-.9 44.8c0 .5.4 1 1 1s1-.4 1-1Z" fill="#142D6E"/><path fill-rule="evenodd" clip-rule="evenodd" d="M44.6 204.098c.6-.2.9-.7.7-1.3-.2-.6-.8-.9-1.3-.7-3.4 1.1-7.1 1.6-10.9 1.4-.5 0-1 .4-1 1 0 .5.4 1 1 1h1.6c3.4 0 6.8-.5 9.9-1.4ZM148.904 223.702c0-.3-1.4-28.9-7.3-52.8-6.1-24.8-41.7-18.8-42.1-18.7-.5.1-.9.7-.8 1.2.1.5.7.9 1.2.8.3 0 34.1-5.7 39.8 17.2 5.9 23.8 7.2 52.1 7.2 52.4 0 .6.5 1 1 1 .6 0 1.1-.5 1-1.1Z" fill="#142D6E"/><path fill-rule="evenodd" clip-rule="evenodd" d="M128.004 231.704c.5 0 .9-.6.8-1.1l-7.2-46.7c0-.5-.6-.9-1.1-.8-.5 0-.9.6-.8 1.1l7.2 46.7c.1.4.5.8 1 .8h.1ZM162.697 221.901c-28.2-2.7-33.8 19.4-33.9 19.6-.2.5.2 1.1.7 1.2.5.2 1.1-.2 1.2-.7.1-.2 5.3-20.6 31.8-18.1 14.7 1.4 20.8 7.7 23.3 12.7 2.1 4.2 1.9 7.9 1.5 8.7-1 .4-3.3.8-9-9.6-.3-.5-.9-.7-1.4-.4-.5.3-.7.9-.4 1.4 4.7 8.6 7.6 10.8 9.9 10.8.7 0 1.3-.2 2-.5 1.5-.8 1.3-4.5.9-6.4-.9-5-5.4-16.7-26.6-18.7Z" fill="#142D6E"/><path fill-rule="evenodd" clip-rule="evenodd" d="M145.804 238.295c-.5-.2-1.1.2-1.2.7-.3 1.1-2.9 11-.1 15.1.7 1 1.7 1.7 2.9 1.8 1.2.1 2.2-.2 3-.9 2.2-2.1 1.9-7.2 1.7-11.2 0-1.3-.1-3 0-3.4 0-.2.4-.4 1.1-.4 2.3-.1 6 2.1 9.5 8.3 3.1 5.5 5.4 8 7.5 8 1.8-.1 2.6-1.7 3.1-2.2 1.2-2.5-2.7-14.6-8.5-19.3-.4-.4-1.1-.3-1.4.1-.4.4-.3 1.1.1 1.4 5.2 4.3 8.6 15.3 7.9 16.9-.4.7-.7 1.1-1 1.1-.4 0-2.1-.4-5.8-7-5-8.9-9.9-9.5-11.3-9.4-1.4 0-2.4.6-2.9 1.5-.4.7-.3 1.9-.2 4.4.2 3.2.5 8.1-1.1 9.6-.2.2-.6.5-1.4.4-.6 0-1.1-.3-1.5-.9-1.9-2.8-.4-10.6.3-13.4.2-.5-.2-1.1-.7-1.2Z" fill="#142D6E"/><path fill-rule="evenodd" clip-rule="evenodd" d="M170.396 232.496c-.3-.4-1-.5-1.4-.2-.4.3-.5 1-.2 1.4 2.1 2.9 7.4 11.4 7.3 15.7-.1 1.6-.5 2.7-1.2 3.2-.8.7-2 .4-2 .4-.5-.2-1.1.2-1.2.7-.1.5.2 1.1.7 1.2 0 0 .5.1 1.1.1.8 0 1.7-.2 2.5-.9 1.3-.9 1.9-2.5 2-4.7.2-5.9-7.3-16.5-7.6-16.9Z" fill="#142D6E"/><path fill-rule="evenodd" clip-rule="evenodd" d="M180.499 247.699c.1 1.4-.5 2.5-1.9 3.1-1.1.5-2.3.6-2.3.6-.6 0-1 .4-1 1s.5 1 1 1c.2 0 3.2-.1 5-2.1.9-.9 1.4-2.2 1.3-3.7-.2-4.7-6.4-15.4-6.7-15.9-.3-.5-.9-.7-1.4-.4-.5.3-.7.9-.4 1.4 1.7 3 6.3 11.5 6.4 15ZM145.5 192.101c.3-.5.2-1.1-.3-1.4-.5-.3-1.1-.2-1.4.3-5.4 8.5-20.5 6.7-20.7 6.7-.5 0-1 .4-1.1.9 0 .5.4 1 .9 1.1.2 0 1.7.2 3.9.2 5.3 0 14.4-1 18.7-7.8Z" fill="#142D6E"/><path fill-rule="evenodd" clip-rule="evenodd" d="M284.1 257.9V93.1c0-5.6-5.8-10.1-12.9-10.1h-226c-7.1 0-12.9 4.6-12.9 10.1v164.8c0 5.6 5.8 10.1 12.9 10.1h226c7.1 0 12.9-4.5 12.9-10.1ZM271.2 84.7h-226v.1c-6.1 0-11.1 3.8-11.1 8.4V258c0 4.6 5 8.4 11.1 8.4h226c6.1 0 11.1-3.8 11.1-8.4V93.1c0-4.6-5-8.4-11.1-8.4Z" fill="#142D6E"/><path fill-rule="evenodd" clip-rule="evenodd" d="M115.2 265.7h117.5v-4.9H115.2v4.9Z" fill="#00BC9C"/><path fill-rule="evenodd" clip-rule="evenodd" d="m288 265.7 14.1-73H194.6l-14 73H288Z" fill="#00BC9C"/><path fill-rule="evenodd" clip-rule="evenodd" d="m292.4 265.7 14-73H199l-14.1 73h107.5Z" fill="#03D5B7"/><path fill-rule="evenodd" clip-rule="evenodd" d="m81.397 122.795-8.2 30.9s-3 9.8 6.8 12.9c3.6.9 7.2 1.2 9.7.2.2-.1.5-.2.7-.3 4.9-2.2 8.2-7 8.9-12.4l.9-6.7c3.7 1.9 7 3.6 16.5.9 14.3-4.2 16.9-26 18.7-38.7 1.8-12.7-4.3-26-27.4-29-23.2-3-29.3 26.4-29.3 26.4-2.9.7-4.2 4.1-4.2 4.1-3.7 7.7 6.9 11.7 6.9 11.7Z" fill="#fff"/><path fill-rule="evenodd" clip-rule="evenodd" d="M90.204 167.699c.3-.1.5-.201.8-.301 5.1-2.3 8.8-7.399 9.5-13.199l.7-5.301c3.3 1.7 7.1 2.801 15.9.301 14.4-4.2 17.4-25.401 19.2-38.101l.2-1.3c1-7.1-.5-13.5-4.3-18.5-4.7-6.2-12.8-10.1-24-11.6-21.9-2.9-29.2 22.3-30.3 26.6-3 1-4.3 4.3-4.3 4.4-1 2.2-1.1 4.3-.3 6.3 1.4 3.5 5.3 5.6 7 6.4l-8 30c-.2.6-2.9 10.901 7.6 14.301 1.7.4 3.9.799 6 .799 1.5 0 2.9-.199 4.3-.799Zm-14.707-56.294c-.8 1.7-.9 3.3-.3 4.8 1.5 3.6 6.6 5.6 6.7 5.7.5.2.7.7.6 1.2l-8.3 30.9c-.1.4-2.6 9 6.2 11.8 3.7.9 6.9 1 9 .2.2-.1.4-.2.7-.3 4.5-2.1 7.7-6.5 8.3-11.7l.9-6.7c0-.3.2-.6.5-.8.3-.2.6-.2.9 0 3.5 1.9 6.5 3.5 15.7.8 13.2-3.8 16.1-24.3 17.8-36.5l.2-1.4c.9-6.6-.4-12.4-3.9-17-4.4-5.8-12-9.4-22.6-10.8-21.9-2.8-28.1 25.4-28.1 25.7-.1.4-.4.7-.8.7-2.3.5-3.5 3.4-3.5 3.4Z" fill="#142D6E"/><path fill-rule="evenodd" clip-rule="evenodd" d="M119.5 147.2c9.8 2.9 23.4-3 23.4-3l-9-23.8c-.99 20.4-14.14 26.78-14.4 26.8ZM112.7 70.702c-43.6-24.3-70.9 47.9-70.9 47.9 7.2 20.6 35.6 19.8 35.6 19.8l3.1-15.8c-11.4-8.7-5.3-13.1-1.4-14.6 1.4-.5 3.4-.1 3.4-.1.5 10.4 3.2 13.1 7 12.5 4.1-.6 3.4-10 3.4-10 15.6 4.7 21.3-18 21.3-18 7.9 17.7 27.8 14.5 27.8 14.5 1.7-35.5-29.1-36.3-29.3-36.2Z" fill="#142D6E"/><path fill-rule="evenodd" clip-rule="evenodd" d="M67.514 105.786c-3.263 7.913.509 16.975 8.423 20.237 7.914 3.262 16.975-.509 20.237-8.423 3.262-7.914-.509-16.975-8.423-20.237-7.914-3.263-16.975.509-20.237 8.423Z" fill="#FFC412"/><path fill-rule="evenodd" clip-rule="evenodd" d="M124.192 115.243a7.302 7.302 0 0 0 3.967 9.531 7.301 7.301 0 0 0 9.531-3.967 7.302 7.302 0 0 0-3.967-9.531 7.302 7.302 0 0 0-9.531 3.967Z" fill="#fff"/><path fill-rule="evenodd" clip-rule="evenodd" d="M134.105 125.705c2.09-.8 3.7-2.4 4.5-4.5 1.8-4.31-.2-9.11-4.5-10.91-2.11-.9-4.31-.9-6.41 0-2.09.8-3.7 2.41-4.5 4.5-.9 2.11-.9 4.31 0 6.41.8 2.1 2.41 3.7 4.5 4.5 1 .39 2.11.59 3.21.59 1.09 0 2.19-.2 3.2-.59ZM128.5 112.1c-1.6.7-2.8 1.9-3.4 3.4-.6 1.6-.6 3.3 0 4.9.7 1.6 1.9 2.8 3.4 3.4 3.2 1.3 6.9-.2 8.3-3.4 1.3-3.2-.2-6.9-3.4-8.3-.8-.3-1.6-.5-2.5-.5-.8 0-1.7.2-2.4.5Z" fill="#142D6E"/><path fill-rule="evenodd" clip-rule="evenodd" d="M130.253 120.386a1.899 1.899 0 1 0 3.127 2.159 1.899 1.899 0 0 0-.484-2.643 1.899 1.899 0 0 0-2.643.484ZM139.197 117.397l3.7-1.3c.5-.2.8-.8.6-1.3-.2-.5-.8-.8-1.3-.6l-3.7 1.3c-.5.2-.8.8-.6 1.3.1.4.5.7.9.7.1 0 .2-.1.4-.1ZM137.6 114.4l3.7-3.7c.4-.4.4-1 0-1.4-.4-.4-1-.4-1.4 0l-3.7 3.7c-.4.4-.4 1 0 1.4.2.2.4.3.7.3.3 0 .5-.1.7-.3Z" fill="#142D6E"/><path fill-rule="evenodd" clip-rule="evenodd" d="M103.969 111.85a7.302 7.302 0 0 0 3.967 9.531 7.302 7.302 0 0 0 9.531-3.967 7.302 7.302 0 0 0-3.967-9.531 7.302 7.302 0 0 0-9.531 3.967Z" fill="#fff"/><path fill-rule="evenodd" clip-rule="evenodd" d="M107.505 122.305c1 .4 2.1.6 3.2.6s2.2-.2 3.2-.6c2.1-.8 3.7-2.4 4.5-4.5.9-2.1.9-4.3 0-6.4-.8-2.1-2.4-3.7-4.5-4.5-2.1-.9-4.3-.9-6.4 0-2.1.8-3.7 2.4-4.5 4.5-.9 2.1-.9 4.3 0 6.4.8 2.1 2.4 3.7 4.5 4.5Zm.795-13.505c-1.6.7-2.8 1.9-3.4 3.4-.6 1.6-.6 3.3 0 4.9.7 1.6 1.9 2.8 3.4 3.4 3.2 1.3 6.9-.2 8.3-3.4.6-1.6.6-3.3 0-4.9-.7-1.6-1.9-2.8-3.4-3.4-.8-.4-1.7-.5-2.5-.5s-1.7.2-2.4.5Z" fill="#142D6E"/><path fill-rule="evenodd" clip-rule="evenodd" d="M110.721 116.81a1.899 1.899 0 0 0 .484 2.643 1.899 1.899 0 1 0 2.159-3.127 1.9 1.9 0 0 0-2.643.484ZM106.201 108.702c.4-.2.6-.8.4-1.3l-1.8-3.5c-.2-.4-.8-.6-1.3-.4-.4.2-.6.8-.4 1.3l1.8 3.5c.2.4.5.6.9.6.2 0 .3 0 .4-.2ZM110.1 107.3v-5.2c0-.5-.4-1-1-1s-1 .4-1 1v5.2c0 .5.4 1 1 1 .5 0 1-.4 1-1Z" fill="#142D6E"/><path fill-rule="evenodd" clip-rule="evenodd" d="M120.5 124.9c2.2 1.3 4 1.2 4.9-.5.9-1.7-2.2-3.9-2.2-3.9l.6-7.1-3.3 11.5Z" fill="#fff"/><path fill-rule="evenodd" clip-rule="evenodd" d="M123.601 124.805c-.6.1-1.6-.1-2.6-.7-.5-.3-1.1-.2-1.4.3-.3.5-.2 1.1.3 1.4 1.2.7 2.2 1 3.2 1h1.1c.9-.3 1.6-.9 2.1-1.8 1-1.9-1-4-2-4.8l.5-6.6c.1-.6-.3-1.1-.9-1.1-.6-.1-1.1.3-1.1.9l-.6 7.1c0 .4.1.7.4.9 1 .7 2.2 2.1 1.9 2.6-.2.4-.5.7-.9.8ZM120.397 105.104c.3-.4.3-1-.1-1.4-.1-.2-3.8-3.5-9.3-1.4-.5.2-.8.8-.6 1.3.2.5.8.8 1.3.6 4.3-1.6 7.2.9 7.3 1 .2.2.5.3.7.3.2 0 .5-.1.7-.4ZM137.803 108.501c.3-.4.2-1.1-.2-1.4-.2-.1-4.1-3.2-9.4-.8-.5.2-.7.8-.5 1.3.2.5.8.7 1.3.5 4.1-1.9 7.2.4 7.3.5.2.1.4.2.6.2.3 0 .6-.1.9-.3ZM113.396 132.498c.5.9 1.5 1.5 2.8 1.8.3.1.5.1.8.1 2.7 0 4.7-3 4.7-3.2.3-.5.2-1.1-.3-1.4-.5-.3-1.1-.2-1.4.3-.4.7-2 2.5-3.4 2.2-.8-.1-1.3-.4-1.6-.9-.4-.7-.3-1.7-.1-2.5.2-.5-.2-1.1-.7-1.2-.5-.2-1.1.2-1.2.7-.4 1.7-.3 3 .4 4.1Z" fill="#142D6E"/><path fill-rule="evenodd" clip-rule="evenodd" d="m113.3 68.6-4.3-.7v2.3l5.9.6-1.6-2.2Z" fill="#E2A40A"/><path fill-rule="evenodd" clip-rule="evenodd" d="M97.303 64.003c-24 24.6-15.3 43.3-15.3 43.3 1.2-31.1 31.3-38.7 31.3-38.7-7.4-9.9-16-4.6-16-4.6Z" fill="#FFC412"/><path fill-rule="evenodd" clip-rule="evenodd" d="M95.4 78.4s-5 .6-5.3 1c-.3.4-9.2 21-9.2 21l-.9 8.9 5.8-1.3s-3.4-16.5 9.6-29.6Z" fill="#FFC412"/><path fill-rule="evenodd" clip-rule="evenodd" d="M86.697 123.796c3.1-1.4 5.6-3.8 6.9-7 1.3-3.1 1.4-6.7 0-9.8-1.4-3.1-3.8-5.6-7-6.9-6.6-2.7-14.1.4-16.8 7-1.3 3.1-1.4 6.7 0 9.8 1.4 3.1 3.8 5.6 7 6.9 1.6.7 3.2 1 4.9 1 1.6 0 3.3-.4 5-1ZM71.705 107.7c-1.1 2.7-1.1 5.6 0 8.3 1.1 2.7 3.2 4.8 5.9 5.9 2.7 1.1 5.6 1.1 8.3 0 2.7-1.1 4.8-3.2 5.9-5.9 1.1-2.7 1.1-5.6 0-8.3-1.1-2.7-3.2-4.8-5.9-5.9-1.41-.5-2.8-.8-4.2-.8-4.3 0-8.3 2.5-10 6.7Z" fill="#142D6E"/><path fill-rule="evenodd" clip-rule="evenodd" d="m75.495 114.296 9.6-7.2c.4-.3.5-1 .2-1.4-.3-.4-1-.5-1.4-.2l-9.6 7.2c-.4.3-.5 1-.2 1.4.2.3.5.4.8.4.2 0 .4 0 .6-.2ZM81.695 116.195l4.3-2.7c.4-.3.6-.9.3-1.4-.3-.4-.9-.6-1.4-.3l-4.3 2.7c-.4.3-.6.9-.3 1.4.2.3.6.5.9.5.2 0 .3-.1.5-.2Z" fill="#142D6E"/><path fill-rule="evenodd" clip-rule="evenodd" d="M163.4 58.7c0-7-5.7-12.7-12.7-12.7-7 0-12.7 5.7-12.7 12.7 0 7 5.7 12.7 12.7 12.7 7 0 12.7-5.7 12.7-12.7Zm-22.4 0c0 5.4 4.3 9.7 9.7 9.7 5.4 0 9.7-4.3 9.7-9.7 0-5.4-4.4-9.7-9.7-9.7-5.3 0-9.7 4.3-9.7 9.7ZM355.3 134c.4-.4.4-1 0-1.4l-10-10c-.4-.4-1-.4-1.4 0-.4.4-.4 1 0 1.4l10 10c.2.2.4.3.7.3.3 0 .5-.1.7-.3ZM311.7 257.001l15.7-19.2c.4-.4.3-1.1-.1-1.4l-19.2-15.7c-.3-.2-.7-.3-1.1-.1-.3.2-.5.6-.5 1l3.5 34.9c0 .4.3.8.7.9h.3c.3 0 .6-.1.7-.4Zm.1-3.101 13.6-16.6-16.6-13.5 3 30.1Z" fill="#03D5B7"/><path fill-rule="evenodd" clip-rule="evenodd" d="M326.2 134.3V57.6H208.9v76.8c0 3.2 2.6 5.9 5.9 5.9h105.4c3.3 0 6-2.7 6-6Z" fill="#fff"/><path fill-rule="evenodd" clip-rule="evenodd" d="M214.3 45c-3 0-5.5 2.4-5.5 5.5v8.4h116.8v-9.2c.1-2.6-2-4.7-4.6-4.7H214.3Z" fill="#E0E0E0"/><path fill-rule="evenodd" clip-rule="evenodd" d="M320.2 50.1c-.88 0-1.6.72-1.6 1.6 0 .88.72 1.6 1.6 1.6.88 0 1.6-.72 1.6-1.6 0-.88-.72-1.6-1.6-1.6Z" fill="#03D5B7"/><path fill-rule="evenodd" clip-rule="evenodd" d="M315.5 50.1c-.88 0-1.6.72-1.6 1.6 0 .88.72 1.6 1.6 1.6.88 0 1.6-.72 1.6-1.6 0-.88-.72-1.6-1.6-1.6Z" fill="#FFC412"/><path fill-rule="evenodd" clip-rule="evenodd" d="M310.8 50.1c.9 0 1.6.7 1.6 1.6 0 .9-.7 1.6-1.6 1.6-.9 0-1.6-.7-1.6-1.6 0-.8.7-1.5 1.6-1.6Z" fill="#fff"/><path fill-rule="evenodd" clip-rule="evenodd" d="M327.1 135.2V50c0-3.2-3.2-5.8-7.2-5.8H215.1c-4 0-7.2 2.6-7.2 5.8v85.2c0 3.2 3.2 5.8 7.2 5.8h104.8c4 0 7.2-2.6 7.2-5.8Zm-112 3.9h104.8c2.8 0 5.2-1.7 5.2-3.8V50c0-2-2.4-3.8-5.2-3.8H215.1v.1c-2.8 0-5.2 1.7-5.2 3.8v85.2c0 2 2.4 3.8 5.2 3.8Z" fill="#142D6E"/><path fill-rule="evenodd" clip-rule="evenodd" d="M204.099 96.6c-.4 1.6 3.2 40.2 3.3 41.2.2 1.5 1.5 3.4 4.3 3.3 2.4-.1 35.8 0 44.2 0 1.1 0 1.8-.9 1.9-2.1l-41.3-2.4-9.7-42.1s-2.3.5-2.7 2.1Z" fill="#142D6E"/><path fill-rule="evenodd" clip-rule="evenodd" d="m218.2 129.605-3.3-32.6c0-.4-.4-.8-.8-.9l-6.9-1.6c-.6-.1-1.3.3-1.4.9v.4l3.6 41.6c.1.7.6 1.2 1.3 1.2l47.2.2-9.1-9-30.6-.2Z" fill="#142D6E"/><path fill-rule="evenodd" clip-rule="evenodd" d="m244.7 137.8-5.5-7.2h-2.6l3.7 7.2h4.4ZM210.8 133.9l6.3-5-2.7-30.5c0-.2-.2-.4-.5-.5l-5.9-.8c-.3 0-.6.2-.6.5v.1l3.4 36.2ZM218.6 137.8l4.6-7.2h-2.6l-6.5 7.2h4.5ZM224.1 137.8l2.4-7.2h-2.7l-4.1 7.2h4.4ZM229.4 137.8l.3-7.2h-2.6l-2.1 7.2h4.4ZM234.4 137.8l-1.6-7.2h-2.6l-.2 7.2h4.4ZM239.6 137.8l-3.6-7.2h-2.6l1.8 7.2h4.4Z" fill="#fff"/><path fill-rule="evenodd" clip-rule="evenodd" d="M245.2 131.9c0-.2-.1-.3-.3-.3H218c-.2 0-.3.1-.3.3 0 .2.1.3.3.3h26.9c.2 0 .3-.1.3-.3ZM244.5 133.9c0-.2-.1-.3-.3-.3h-26.9c-.2 0-.3.1-.3.3 0 .2.1.3.3.3h26.9c.2 0 .3-.1.3-.3ZM244.6 135.8c0-.2-.1-.3-.3-.3h-28.7c-.2 0-.3.1-.3.3 0 .2.1.3.3.3h28.7c.1 0 .3-.1.3-.3Z" fill="#142D6E"/><path fill-rule="evenodd" clip-rule="evenodd" d="m238.4 108.2-8.7-.2-10.5 2.5-5.4 5.3 5.7 7 8.5 6.2 5.9-2.6 13.1 8.1 9 2.9 30.8-7.1 20.8-28.7-1.1-20.6-14.8 3.5-13.9 16.3-11.6 14.8-8.3-3.6-19.5-3.8Z" fill="#fff"/><path fill-rule="evenodd" clip-rule="evenodd" d="M318.2 139.6s1.3-32 .5-42.8c-.6-8-7.2-15.8-12.6-17.3l-18.7 60.1h30.8Z" fill="#fff"/><path fill-rule="evenodd" clip-rule="evenodd" d="M286.4 139.601c0 .6.4 1 1 1h30.8c.5 0 1-.4.9-.9.1-1.3 1.3-32.2.5-42.9-.7-8.5-7.6-16.6-13.4-18.2-.5-.1-1.1.2-1.2.7-.1.5.2 1.1.7 1.2 5.1 1.4 11.3 8.8 11.9 16.4.8 9.5-.2 36.3-.4 41.7h-29.8c-.6 0-1 .4-1 1Z" fill="#142D6E"/><path fill-rule="evenodd" clip-rule="evenodd" d="M301.804 41.702c-4.8-3.1-11.8-3-15.9.8-1 .9-1.9 3-2.4 5.7-.5 2.2-3.1 21.9-1.1 24.9 1.4 2.1 7.3 3.4 9.3 3.9.1.7.2 1.4.2 2 0 .3 0 9.5 3.3 10 3.4.5 8.7-5.1 10.7-9.4.1-.2-.6-4.3-1.2-8 .5-1 1-2.4 1.4-4 .4 0 3.1-1.2 3.5-1.4 3.8-1.6 4.3-7.9-.3-8.2-.8 0-1.4 0-2.1.5.1-3.8-.2-7.3-1.1-9.3-.7-1.4-1.6-2.7-2.8-3.7-.4-1.3-.9-2.6-1.5-3.8Z" fill="#fff"/><path fill-rule="evenodd" clip-rule="evenodd" d="M290.9 79.096c0 3.1.5 10.3 4.2 10.9h.6c4 0 9.2-5.7 11.1-9.9.2-.4.2-.4-.8-6.5l-.3-1.7c.5-.9.9-2 1.2-3.3 1.1-.3 2.7-1.1 3.1-1.3 2.7-1.2 3.8-4.3 3.4-6.5-.3-2.1-1.9-3.5-4.1-3.6h-1.1c0-3.6-.4-6.6-1.2-8.3-.6-1.5-1.6-2.8-2.8-3.9-.4-1.3-.9-2.5-1.5-3.7-.1-.2-.2-.3-.4-.4-5.4-3.5-12.8-3.1-17.1.9-1.4 1.4-2.3 4.2-2.8 6.3-.2 1.1-3.4 22-.9 25.7 1.4 2 5.4 3.2 9.3 4.1 0 .4.1.8.1 1.2Zm16.095-19.699c-.3-.2-.5-.5-.5-.9.1-3.9-.3-7.2-1-8.9-.6-1.3-1.4-2.4-2.5-3.4-.1-.1-.2-.3-.3-.5-.4-1.2-.8-2.3-1.3-3.4-5-2.7-11.3-2.4-14.8.9-.8.8-1.6 2.7-2.2 5.2-.6 2.7-2.9 21.7-1.2 24.1.8 1.1 3.6 2.3 8.4 3.4l.3.1c.4.1.7.4.8.8.1.8.2 1.4.3 2.1.1 5 1.1 8.9 2.5 9.1 2.7.4 7.6-4.4 9.6-8.6-.1-.7-.5-3.3-.9-5.6l-.3-2.1c0-.2 0-.5.1-.6.5-.9.9-2.1 1.3-3.7.1-.4.5-.8 1-.8.3-.1 2.6-1.1 3-1.3 0 0 .1 0 .1-.1 1.8-.8 2.6-2.8 2.3-4.3-.1-.8-.7-1.8-2.3-1.9-.7 0-1 0-1.4.3-.3.2-.7.2-1 .1Z" fill="#142D6E"/><path fill-rule="evenodd" clip-rule="evenodd" d="M293.805 61c1.6.1 1.8-3.4.1-3.4-1.5 0-1.7 3.3-.1 3.4ZM285.299 60.302c1.6.2 1.9-3.2.5-3.4-1.7-.2-2.1 3.2-.5 3.4ZM294.9 68.495c.3-.4.1-1-.3-1.3-.5-.3-1.1-.1-1.4.3 0 0-.5.7-2.2.5-.5 0-1 .4-1.1.9 0 .5.4 1 .9 1.1.3.1.5.1.8.1 2.3 0 3.2-1.3 3.3-1.6Z" fill="#142D6E"/><path fill-rule="evenodd" clip-rule="evenodd" d="M288.496 63.1s-2.4.1-2.3 1.3c.1 1.2 2.5 1.2 2.5 1.2v-9.7l-.2 7.2Z" fill="#fff"/><path fill-rule="evenodd" clip-rule="evenodd" d="M285.1 64.5c.1 1.6 1.9 2.2 3.5 2.2.5 0 1-.5 1-1s-.4-1-1-1c-.5 0-1.2-.1-1.4-.2.3-.2.8-.3 1.3-.3.6 0 1-.5 1-1l.2-7.2c0-.5-.4-1-1-1-.5 0-1 .5-1 1l-.2 6.3c-.6.1-1.4.4-1.9.9-.4.3-.5.8-.5 1.3ZM297.904 56.696c.4-.4.5-1 .1-1.4-2.1-2.2-5.1-1.9-5.2-1.9-.6.1-1 .6-.9 1.1.1.6.6 1 1.1.9.1 0 2.2-.2 3.5 1.3.2.2.4.3.7.3.3 0 .5-.1.7-.3ZM284.195 54.996c1.2-.7 2.6-.5 2.6-.5.6.1 1.1-.3 1.2-.8.1-.6-.3-1.1-.8-1.2-.1-.1-2.1-.4-4 .7-.4.3-.6.9-.3 1.4.2.3.6.5.9.5.2 0 .4-.1.4-.1Z" fill="#142D6E"/><path fill-rule="evenodd" clip-rule="evenodd" d="M297.199 64.796c1.3-.7 2.3-1.8 2.7-3.2.9-2.8-.7-5.9-3.6-6.8-1.4-.4-2.9-.3-4.2.4-1.3.7-2.3 1.8-2.7 3.2-.9 2.8.7 5.9 3.6 6.8.5.1 1.1.2 1.6.2.9 0 1.8-.2 2.6-.6Zm-1.104-1.797c.8-.4 1.4-1.2 1.7-2 .3-.8.2-1.8-.2-2.6s-1.2-1.4-2-1.7c-.3-.2-.6-.2-1-.2-.6 0-1.1.1-1.6.4-.8.4-1.4 1.2-1.7 2-.3.8-.2 1.8.2 2.6s1.2 1.4 2 1.7c.9.3 1.8.2 2.6-.2ZM287.005 62.8c.8-.9 1.3-2.2 1.3-3.5.1-1.3-.3-2.6-1.1-3.6s-1.9-1.6-3.1-1.6h-.1c-2.3 0-4.3 2.2-4.4 5-.1 1.3.3 2.6 1.1 3.6s1.9 1.6 3.2 1.6c1.2 0 2.3-.6 3.1-1.5Zm-5.505-3.7c0 .9.2 1.7.7 2.3.4.6 1 .9 1.6.9.6 0 1.2-.3 1.7-.8.5-.6.8-1.4.8-2.3 0-.9-.2-1.7-.7-2.3-.4-.6-1-.9-1.7-.9-1.3 0-2.4 1.4-2.4 3.1Z" fill="#FFC412"/><path fill-rule="evenodd" clip-rule="evenodd" d="M305.405 60.2c.6-.1 1-.6.9-1.1-.1-.6-.5-.9-1.1-.9l-6.1.6c-.6.1-1 .6-.9 1.1.1.5.5.9 1 .9l6.2-.6ZM291.101 59.799c.3-.5.2-1.1-.3-1.4-.7-.5-2.4-1.1-4-.1-.5.3-.6.9-.3 1.4.3.5.9.6 1.4.3.9-.5 1.8.1 1.9.1.1.1.3.2.5.2.3 0 .6-.1.8-.5Z" fill="#FFC412"/><path fill-rule="evenodd" clip-rule="evenodd" d="M301.602 37h-1.6c-3.8-.2-8.5.7-8.5.7-.4-1.4-1.2-2.6-2.2-3.6-1-1-2.6-1.1-3.6-.1l-.1.1c-1-1.9-3-2.7-4.3-1.8-2.4 1.6-4.6 12.1.1 16.1 5.7 4.8 14.7-.8 14.7-.8.8 2.8 3.4 4.8 6.3 4.8 0 0 .2 10.5 2.9 10.7 3.6.3 6-10 6-14.7.1-2.6-1-4.8-3.4-5.6-.4-.1-.9-.2-1.3-.2.3-2.3-1.1-4.6-3.4-5.4-.5-.2-1-.2-1.6-.2ZM214 118.103c.1 0 .3 0 .3.1.5-.2.8-.8.6-1.3 0-.1-.3-.9.4-2 .8-1.4 3.5-3.9 12.2-5.5 15.1-2.8 38 7 38.2 7.1.4.2.9 0 1.2-.3.4-.4 9.5-11.4 11.5-15.5.2-.5 0-1.1-.5-1.3-.5-.2-1.1 0-1.3.5-1.7 3.4-8.9 12.3-10.8 14.6-4-1.7-24.2-9.6-38.6-7-7.3 1.3-11.9 3.5-13.6 6.5-1.1 1.8-.6 3.3-.5 3.5.1.4.5.6.9.6Z" fill="#142D6E"/><path fill-rule="evenodd" clip-rule="evenodd" d="m307.9 104.4-12.2-3.2-20.9 24.9 33.1-21.7Z" fill="#fff"/><path fill-rule="evenodd" clip-rule="evenodd" d="m294.995 100.503-20.9 25c-.4.4-.3 1 .1 1.4.1.1.4.2.6.2.3 0 .6-.1.8-.3l20.5-24.5 11.6 3c.5.2 1.1-.2 1.2-.7.2-.5-.2-1.1-.7-1.2l-12.2-3.2c-.4-.1-.8 0-1 .3Z" fill="#142D6E"/><path fill-rule="evenodd" clip-rule="evenodd" d="M252.2 136.5c13.4 6.1 26.4 5.6 26.4 5.6 14.2 0 26.5-25 29.8-36.7l-56.2 31.1Z" fill="#fff"/><path fill-rule="evenodd" clip-rule="evenodd" d="M251.403 136.101c-.2.5 0 1.1.5 1.3 11.6 5.3 22.7 5.7 25.9 5.7h.8c15 0 27.4-25.8 30.7-37.5.1-.5-.2-1.1-.7-1.2-.5-.1-1.1.2-1.2.7-3.5 12.6-15.6 36-28.8 36-.1 0-12.9.4-25.9-5.5-.5-.2-1.1 0-1.3.5Z" fill="#142D6E"/><path fill-rule="evenodd" clip-rule="evenodd" d="M226.6 112.504c-13.5 5-16.7 7.3-16 9.2.7 2 9.3-2.1 9.3-2.1l54.8 6.2s-34.6-18.3-48.1-13.3Z" fill="#fff"/><path fill-rule="evenodd" clip-rule="evenodd" d="M274.202 126.699c.2.1.3.1.5.1.4 0 .7-.2.6-.4.3-.5.1-1.1-.4-1.4-1.4-.8-35.1-18.5-48.9-13.4-13.7 5.1-17.6 7.6-16.6 10.5.2.4.5.8 1 1 2.1.9 8-1.7 9.7-2.5.5-.2.7-.8.5-1.3-.2-.5-.8-.7-1.3-.5-3.3 1.6-6.9 2.7-7.9 2.5 0-1.4 5.2-4 15.5-7.8 12.9-4.8 47 13 47.3 13.2Z" fill="#142D6E"/><path fill-rule="evenodd" clip-rule="evenodd" d="M215.003 130.2s1.7 1.3 4.6-3.4l4.2-9.8s-12.3 9.9-8.8 13.2Z" fill="#fff"/><path fill-rule="evenodd" clip-rule="evenodd" d="M215.601 131.295c.1 0 .3 0 .4-.1 1.5-.2 2.9-1.6 4.4-4 .3-.5.2-1.1-.3-1.4-.5-.3-1.1-.2-1.4.3-1.8 2.9-2.9 3.3-3.2 3.2-.1-.2-.2-.4-.2-.8.1-2.6 5.6-8 9.1-10.8.5-.3.5-.9.2-1.4-.3-.5-1-.5-1.4-.2-1 .8-9.6 7.9-9.8 12.3-.1 1 .2 1.8.9 2.4 0 .1.1.1.1.1.1.1.5.4 1.2.4Z" fill="#142D6E"/><path fill-rule="evenodd" clip-rule="evenodd" d="M219.4 127.7c-1.3 5 1.1 6.4 2.9 4.9l5.6-14.2s-7.1 4.3-8.5 9.3Z" fill="#fff"/><path fill-rule="evenodd" clip-rule="evenodd" d="M219.597 133.796c.4.3.8.4 1.3.4.7 0 1.5-.3 2.1-.9.4-.4.5-1 .1-1.4-.4-.4-1-.5-1.4-.1-.3.3-.7.5-1 .3-.4-.2-.9-1.4-.2-4.1 1.2-4.6 7.9-8.7 8-8.7.4-.3.6-.9.3-1.4-.3-.4-.9-.6-1.4-.3-.3.2-7.5 4.5-8.9 9.9-1.2 4.3.4 5.9 1.1 6.3Z" fill="#142D6E"/><path fill-rule="evenodd" clip-rule="evenodd" d="M222.897 130.7c.3 5.6 2.7 4 3.6 2.9l4.5-13.2s-8.3 4.7-8.1 10.3Z" fill="#fff"/><path fill-rule="evenodd" clip-rule="evenodd" d="M231.902 119.999c-.3-.5-.9-.7-1.4-.4-.4.2-8.9 5-8.6 11.2.1 2.8.8 4.3 2.1 4.8.2.1.5.1.7.1 1.2 0 2.2-1 2.6-1.3.3-.4.3-1-.1-1.4-.4-.3-1-.3-1.4.1-.5.5-1 .7-1.1.7 0 0-.7-.3-.8-3-.2-5 7.5-9.4 7.6-9.4.5-.3.7-.9.4-1.4Z" fill="#142D6E"/><path fill-rule="evenodd" clip-rule="evenodd" d="M226.803 130.6c-.6 3.7.4 5 1.9 4.6 1.6-.4 1.9-4.4 3.3-5.4 1.5-1.1 3.1-1.5 6.6.4 3.5 1.9 13.6 6.3 13.6 6.3l-18.1-14.1s-6.7 4.5-7.3 8.2Z" fill="#fff"/><path fill-rule="evenodd" clip-rule="evenodd" d="M228.002 134.101c0-.1-.6-.7-.2-3.5.4-2.7 5-6.3 6.8-7.5.5-.3.6-.9.3-1.4-.3-.5-.9-.6-1.4-.3-.7.5-7.1 4.9-7.7 8.9-.3 2.6-.1 4.3.9 5.2.5.4 1.2.8 2.3.5 1.3-.3 1.9-1.8 2.5-3.3.4-.8.8-1.9 1.2-2.2 1-.7 2.2-1.3 5.5.5 3.5 1.9 13.3 6.2 13.7 6.4.1.1.3.1.4.1.4 0 .8-.2 1-.7.2-.5 0-1.1-.5-1.3-.1 0-10.2-4.5-13.6-6.3-3.3-1.8-5.6-1.9-7.7-.3-.9.6-1.4 1.9-1.9 3.1-.2.7-.8 2-1.1 2.1-.4.1-.5 0-.5 0Z" fill="#142D6E"/><path fill-rule="evenodd" clip-rule="evenodd" d="M307.099 121.202s11.3-29.4.5-31.1c-10.8-1.7-22.5 19.3-22.4 19.6 6.4 13.6 21.9 11.5 21.9 11.5Z" fill="#fff"/><path fill-rule="evenodd" clip-rule="evenodd" d="M307.096 122.205c.4 0 .7-.3.8-.6.4-.9 8.4-21.9 3.9-29.6-1-1.6-2.4-2.6-4.2-2.9-6.8-1.1-13.7 5.9-18.3 12 0 .1-5.7 7.7-5.1 9 5.1 10.9 16 12.2 20.7 12.2 1.4 0 2.3-.1 2.2-.1Zm-.796-1.907c2.3-6.3 7-21.8 3.8-27.3-.6-1.1-1.5-1.7-2.8-1.9-9-1.5-19.7 15.8-21.1 18.6 5.5 11.1 17.3 10.8 20.1 10.6Z" fill="#142D6E"/><path fill-rule="evenodd" clip-rule="evenodd" d="M276.099 97.9s-.8 3.2 5.7 5.3l9.9-19.2s-7.7 2.6-15.6 13.9Z" fill="#fff"/><path fill-rule="evenodd" clip-rule="evenodd" d="M277.004 98.397c7.6-10.6 14.9-13.3 15-13.3.5-.2.8-.8.6-1.3-.2-.5-.8-.8-1.3-.6-.3.1-8.1 2.8-16.1 14.2-.1.1-.2.2-.2.3 0 .1-.9 4.1 6.4 6.5h.3c.4 0 .8-.2.9-.5.2-.6-.1-1.1-.6-1.3-4.6-1.5-5-3.5-5-4Z" fill="#142D6E"/><path fill-rule="evenodd" clip-rule="evenodd" d="M279.4 121.3c2.4-25.2 12.4-35.7 12.5-35.8.4-.4.4-1 0-1.4-.4-.4-1-.4-1.4 0-.4.4-10.5 11-13 37 0 .6.4 1 1 1.1.6 0 1-.4.9-.9Z" fill="#142D6E"/></g></svg>